<svg width="602" height="289" viewBox="0 0 602 289" fill="none" xmlns="http://www.w3.org/2000/svg">
<rect width="602" height="289" fill="white"/>
<rect width="301" height="289" fill="#A83DEE"/>
<path fill-rule="evenodd" clip-rule="evenodd" d="M74 75.891V244H226V46H104.362L74 75.891Z" fill="white"/>
<path d="M104 46L74 76L104 76L104 46Z" fill="#D9D9D9"/>
<rect x="96" y="83" width="82" height="12" fill="#A83DEE"/>
<rect x="96" y="109" width="116" height="12" fill="#D9D9D9"/>
<rect x="96" y="126" width="116" height="12" fill="#D9D9D9"/>
<rect x="96" y="143" width="104" height="12" fill="#D9D9D9"/>
<rect x="96" y="160" width="22" height="12" fill="#D9D9D9"/>
<rect x="96" y="186" width="116" height="12" fill="#D9D9D9"/>
<rect x="96" y="203" width="106" height="12" fill="#D9D9D9"/>
<circle cx="414" cy="145" r="27" fill="#511BCD"/>
<path d="M463.071 154.6V151.805C462.391 152.801 461.495 153.586 460.382 154.161C459.28 154.735 458.114 155.022 456.884 155.022C455.63 155.022 454.505 154.746 453.509 154.196C452.513 153.645 451.792 152.871 451.346 151.875C450.901 150.879 450.679 149.502 450.679 147.745V135.932H455.618V144.51C455.618 147.135 455.706 148.746 455.882 149.344C456.069 149.93 456.403 150.399 456.884 150.75C457.364 151.09 457.973 151.26 458.712 151.26C459.555 151.26 460.311 151.032 460.979 150.575C461.647 150.106 462.104 149.532 462.35 148.852C462.596 148.161 462.72 146.479 462.72 143.807V135.932H467.659V154.6H463.071ZM489.772 154.6H484.833V145.073C484.833 143.057 484.727 141.756 484.516 141.17C484.305 140.573 483.96 140.11 483.479 139.782C483.011 139.453 482.442 139.289 481.774 139.289C480.919 139.289 480.151 139.524 479.471 139.993C478.792 140.461 478.323 141.082 478.065 141.856C477.819 142.629 477.696 144.059 477.696 146.145V154.6H472.757V135.932H477.345V138.674C478.973 136.565 481.024 135.51 483.497 135.51C484.587 135.51 485.583 135.709 486.485 136.108C487.388 136.495 488.067 136.993 488.524 137.602C488.993 138.211 489.315 138.903 489.491 139.676C489.679 140.45 489.772 141.557 489.772 142.998V154.6ZM513.38 135.932V139.87H510.005V147.393C510.005 148.916 510.034 149.807 510.093 150.065C510.163 150.311 510.309 150.516 510.532 150.68C510.766 150.844 511.048 150.926 511.376 150.926C511.833 150.926 512.495 150.768 513.362 150.452L513.784 154.284C512.636 154.776 511.335 155.022 509.882 155.022C508.991 155.022 508.188 154.875 507.473 154.582C506.759 154.278 506.231 153.891 505.891 153.422C505.563 152.942 505.335 152.297 505.206 151.489C505.1 150.914 505.048 149.754 505.048 148.008V139.87H502.78V135.932H505.048V132.223L510.005 129.34V135.932H513.38Z" fill="black"/>
<path d="M494.8 133.401V128.83H499.739V133.401H494.8ZM494.8 154.6V135.932H499.739V154.6H494.8Z" fill="#511BCD"/>
<path d="M428.988 136.5C429.004 136.382 429.004 136.261 428.988 136.143C428.973 136.043 428.943 135.946 428.901 135.854C428.855 135.771 428.803 135.691 428.745 135.616C428.679 135.508 428.598 135.411 428.503 135.327L428.295 135.208C428.195 135.135 428.084 135.077 427.966 135.038H427.619C427.513 134.938 427.39 134.857 427.255 134.8H418.593C418.133 134.8 417.693 134.979 417.368 135.298C417.043 135.617 416.86 136.049 416.86 136.5C416.86 136.951 417.043 137.383 417.368 137.702C417.693 138.021 418.133 138.2 418.593 138.2H423.496L416.566 146.207L409.082 141.838C408.727 141.631 408.309 141.555 407.902 141.624C407.496 141.692 407.128 141.901 406.864 142.212L398.202 152.412C398.056 152.584 397.946 152.782 397.878 152.996C397.81 153.209 397.786 153.434 397.807 153.656C397.828 153.879 397.894 154.095 398 154.293C398.106 154.491 398.251 154.666 398.427 154.809C398.738 155.062 399.131 155.201 399.536 155.2C399.79 155.2 400.042 155.146 400.272 155.04C400.503 154.934 400.707 154.78 400.87 154.588L408.579 145.51L415.977 149.862C416.328 150.066 416.741 150.142 417.143 150.077C417.546 150.012 417.912 149.809 418.177 149.505L425.523 141.09V145C425.523 145.451 425.705 145.883 426.03 146.202C426.355 146.521 426.796 146.7 427.255 146.7C427.715 146.7 428.155 146.521 428.48 146.202C428.805 145.883 428.988 145.451 428.988 145V136.5Z" fill="white"/>
</svg>
