<svg width="826" height="826" viewBox="0 0 826 826" fill="none" xmlns="http://www.w3.org/2000/svg">
<g clip-path="url(#clip0_10_171)">
<rect width="826" height="826" fill="#E6E6E6"/>
<rect x="-51" y="294" width="477" height="477" rx="31" fill="#9981CF"/>
<g clip-path="url(#clip1_10_171)">
<path opacity="0.5" d="M-2 601C-2 601 165.5 616.558 260.534 547.986C327.754 499.483 347.282 462.93 417.882 464.687C488.106 466.444 541.056 525.843 541.056 525.843C541.056 525.843 589.124 573.292 661.226 581.727C759.5 593.224 847.5 573.5 847.5 573.5L837.5 837H-15V708L-2 601Z" fill="url(#paint0_linear_10_171)"/>
<path d="M46.1062 604.573C15.6882 604.573 -4.96602 602.112 -5.34155 602.112L-4.96602 598.598C-4.59049 598.598 43.853 604.221 103.187 598.246C158.014 592.974 233.496 576.103 282.691 528.303C329.257 482.963 373.194 461.172 416.755 461.172C417.131 461.172 417.131 461.172 417.506 461.172C460.317 461.524 503.127 483.315 548.567 528.303C615.411 594.731 765.999 589.459 828.337 576.455L829.088 579.97C807.308 584.539 775.012 588.054 738.961 588.054C670.614 588.054 589.875 575.049 545.562 530.764C501.25 486.478 459.19 465.038 417.506 464.687C374.696 464.335 331.51 485.775 285.319 530.764C235.374 579.267 158.765 596.137 103.562 601.761C82.5327 603.87 62.6296 604.573 46.1062 604.573Z" fill="#3936BE"/>
<path d="M411.873 596.84C357.797 596.84 303.345 583.484 258.657 550.798C203.078 510.027 128.348 504.755 75.0221 507.215C17.5659 510.378 -27.4979 523.383 -27.8734 523.383L-29 520.219C-28.6245 520.219 16.8148 507.215 75.0221 504.052C128.723 501.24 204.58 506.512 260.91 547.986C312.358 585.945 383.333 600.707 460.692 589.811C526.41 580.321 591.002 552.555 628.555 517.408C687.513 462.227 757.362 466.796 831.342 471.716C839.228 472.419 847.114 472.771 855.376 473.122L855 476.637C847.114 476.285 839.228 475.583 830.966 475.231C758.113 470.31 689.015 465.741 631.184 519.868C585.369 562.748 498.621 596.84 411.873 596.84Z" fill="#F47500"/>
<path d="M416.38 478.043C425.713 478.043 433.279 470.962 433.279 462.227C433.279 453.492 425.713 446.41 416.38 446.41C407.047 446.41 399.481 453.492 399.481 462.227C399.481 470.962 407.047 478.043 416.38 478.043Z" fill="#3936BE"/>
<path d="M425.768 462.227C425.768 467.147 421.637 471.013 416.38 471.013C411.122 471.013 406.992 467.147 406.992 462.227C406.992 457.306 411.122 453.44 416.38 453.44C421.637 453.44 425.768 457.306 425.768 462.227Z" fill="white"/>
</g>
<path d="M770 120.975V165.525C770 202.65 755.15 217.5 718.025 217.5H673.475C636.35 217.5 621.5 202.65 621.5 165.525V120.975C621.5 83.85 636.35 69 673.475 69H718.025C755.15 69 770 83.85 770 120.975ZM588.5 302.475V347.025C588.5 384.15 573.65 399 536.525 399H491.975C454.85 399 440 384.15 440 347.025V302.475C440 265.35 454.85 250.5 491.975 250.5H536.525C573.65 250.5 588.5 265.35 588.5 302.475Z" stroke="#511BCD" stroke-width="9.5" stroke-linecap="round" stroke-linejoin="round"/>
<path d="M693.77 217.5V260.73C693.77 305.115 676.115 322.77 631.73 322.77H588.5V302.475C588.5 265.35 573.65 250.5 536.525 250.5H516.23V207.27C516.23 162.885 533.885 145.23 578.27 145.23H621.5V165.525C621.5 202.65 636.35 217.5 673.475 217.5H693.77Z" stroke="#511BCD" stroke-width="9.5" stroke-linecap="round" stroke-linejoin="round"/>
<g filter="url(#filter0_d_10_171)">
<rect x="77" y="98" width="528" height="339" rx="38" fill="#4361EE"/>
</g>
<rect x="77" y="285" width="528" height="79" fill="#253789"/>
</g>
<defs>
<filter id="filter0_d_10_171" x="62" y="98" width="558" height="393" filterUnits="userSpaceOnUse" color-interpolation-filters="sRGB">
<feFlood flood-opacity="0" result="BackgroundImageFix"/>
<feColorMatrix in="SourceAlpha" type="matrix" values="0 0 0 0 0 0 0 0 0 0 0 0 0 0 0 0 0 0 127 0" result="hardAlpha"/>
<feMorphology radius="15" operator="erode" in="SourceAlpha" result="effect1_dropShadow_10_171"/>
<feOffset dy="39"/>
<feGaussianBlur stdDeviation="15"/>
<feComposite in2="hardAlpha" operator="out"/>
<feColorMatrix type="matrix" values="0 0 0 0 0.223529 0 0 0 0 0.211765 0 0 0 0 0.745098 0 0 0 1 0"/>
<feBlend mode="normal" in2="BackgroundImageFix" result="effect1_dropShadow_10_171"/>
<feBlend mode="normal" in="SourceGraphic" in2="effect1_dropShadow_10_171" result="shape"/>
</filter>
<linearGradient id="paint0_linear_10_171" x1="435.992" y1="826.141" x2="435.992" y2="464.512" gradientUnits="userSpaceOnUse">
<stop stop-color="white" stop-opacity="0"/>
<stop offset="0.9992" stop-color="#3936BE"/>
</linearGradient>
<clipPath id="clip0_10_171">
<rect width="826" height="826" fill="white"/>
</clipPath>
<clipPath id="clip1_10_171">
<rect width="884" height="394" fill="white" transform="translate(-29 432)"/>
</clipPath>
</defs>
</svg>
