<svg width="826" height="826" viewBox="0 0 826 826" fill="none" xmlns="http://www.w3.org/2000/svg">
<g clip-path="url(#clip0_10_89)">
<rect width="826" height="826" fill="#F72585"/>
<path d="M623.537 262.308C640.242 227.534 689.758 227.534 706.463 262.308L784.971 425.725C791.676 439.683 804.955 449.33 820.302 451.395L999.981 475.561C1038.22 480.703 1053.52 527.795 1025.61 554.429L894.448 679.592C883.245 690.283 878.173 705.893 880.953 721.127L913.493 899.479C920.417 937.432 880.359 966.536 846.404 948.223L686.836 862.161C673.207 854.81 656.793 854.81 643.164 862.161L483.596 948.223C449.641 966.536 409.583 937.432 416.507 899.479L449.047 721.127C451.827 705.893 446.755 690.283 435.552 679.592L304.393 554.429C276.484 527.795 291.785 480.703 330.019 475.561L509.698 451.395C525.045 449.33 538.324 439.683 545.029 425.725L623.537 262.308Z" fill="#F08CBA"/>
<path opacity="0.5" d="M850.904 392.257L769.167 535.612C759.946 551.54 737.311 551.54 728.089 536.031L708.808 503.336C699.586 487.827 677.37 487.827 668.148 503.336C658.089 519.683 634.196 518.426 626.232 501.24L618.687 484.893C610.304 467.288 585.154 466.45 575.932 484.055L553.297 527.648C544.495 544.833 520.183 544.833 510.962 527.648L496.71 500.821C488.746 485.312 466.949 483.635 456.47 497.887L443.895 515.073C434.255 528.067 414.973 528.067 405.332 515.073L384.374 486.15C373.895 471.899 352.098 473.575 344.134 489.084L334.913 506.689C326.948 522.618 304.733 523.875 294.673 509.624L251.08 450.94C241.02 437.108 219.642 437.946 211.259 453.036L140.839 577.528C132.456 592.618 111.079 593.876 100.6 579.624L1.67676 441.3V818.967H852.581L850.904 392.257Z" fill="url(#paint0_linear_10_89)"/>
<path d="M120.3 591.78C111.917 591.78 104.372 588.007 99.342 580.882L0 442.557L3.35332 440.042L102.276 578.367C106.468 584.235 113.594 588.007 121.139 587.588C128.684 587.169 135.39 582.977 138.743 576.69L208.744 452.198C212.936 444.653 220.9 439.623 229.702 439.204C238.505 438.785 246.888 442.557 252.337 449.683L295.511 508.785C300.122 515.073 307.248 518.426 314.793 517.588C322.338 517.169 329.044 512.558 332.398 505.851L341.619 488.246C345.811 480.282 353.775 474.833 362.577 474.414C371.38 473.575 380.182 477.767 385.631 484.893L406.59 513.815C410.781 519.264 417.069 522.618 424.195 522.618C431.32 522.618 437.608 519.264 441.8 513.815L454.374 496.629C459.824 489.504 468.207 485.312 477.428 486.15C486.231 486.989 494.195 492.019 498.387 499.983L512.638 526.809C516.411 533.935 523.537 538.546 531.92 538.546C540.303 538.546 547.429 534.354 551.201 526.809L573.836 483.216C578.447 474.414 587.25 468.965 597.31 469.384C607.37 469.384 616.172 475.252 620.364 484.055L627.909 500.402C631.262 507.947 638.388 512.558 646.352 512.977C654.316 513.396 661.861 509.624 666.053 502.498C670.663 494.534 679.047 489.923 688.268 489.923C697.49 489.923 705.873 494.534 710.484 502.498L729.766 535.193C733.538 541.899 740.664 545.672 748.209 545.672C748.209 545.672 748.209 545.672 748.628 545.672C756.592 545.672 763.299 541.48 767.49 534.773L849.228 391L853 393.096L771.263 536.45C766.652 544.414 758.269 549.444 749.047 549.444C749.047 549.444 749.047 549.444 748.628 549.444C739.406 549.444 731.023 544.833 726.412 536.869L707.131 504.174C703.358 497.468 696.232 493.695 688.687 493.695C681.143 493.695 674.017 497.468 670.244 504.174C665.214 512.558 656.412 517.169 646.771 516.749C637.13 516.33 628.747 510.881 624.555 502.079L617.01 485.731C613.238 478.186 606.112 473.575 597.729 473.156C589.345 472.737 581.8 477.348 578.028 484.893L555.393 528.486C550.782 537.288 542.399 542.318 532.339 542.318C522.698 542.318 513.896 537.288 509.285 528.486L495.033 501.659C491.68 494.953 484.973 490.761 477.428 489.923C469.884 489.504 462.758 492.857 458.147 498.725L445.572 515.911C440.542 522.618 432.997 526.39 424.614 526.39C416.23 526.39 408.686 522.618 403.656 515.911L382.697 486.989C378.086 480.701 370.961 477.767 363.416 478.186C355.871 478.605 349.164 483.216 345.811 489.923L336.589 507.528C332.398 515.492 324.433 520.941 315.631 521.36C306.829 522.199 298.026 518.007 292.577 510.881L249.403 451.779C245.211 445.911 238.085 442.557 230.541 442.976C222.996 443.396 216.708 447.587 212.936 453.875L142.935 578.367C138.743 585.912 130.779 590.942 121.977 591.361C121.139 591.78 120.719 591.78 120.3 591.78Z" fill="#3936BE"/>
<path d="M474.914 507.947C485.331 507.947 493.776 499.502 493.776 489.084C493.776 478.667 485.331 470.222 474.914 470.222C464.496 470.222 456.051 478.667 456.051 489.084C456.051 499.502 464.496 507.947 474.914 507.947Z" fill="#3936BE"/>
<path d="M484.974 489.085C484.974 494.953 480.363 499.564 474.495 499.564C468.626 499.564 464.016 494.953 464.016 489.085C464.016 483.216 468.626 478.605 474.495 478.605C480.363 478.605 484.974 483.216 484.974 489.085Z" fill="white"/>
<path d="M441.294 427.239V419.058H441.819V427.239H441.294ZM443.059 421.512C443.02 421.188 442.865 420.937 442.592 420.758C442.319 420.579 441.985 420.489 441.589 420.489C441.299 420.489 441.045 420.536 440.828 420.63C440.613 420.724 440.444 420.853 440.323 421.017C440.204 421.181 440.144 421.367 440.144 421.576C440.144 421.751 440.185 421.901 440.269 422.027C440.354 422.15 440.462 422.254 440.595 422.337C440.727 422.418 440.865 422.485 441.01 422.538C441.155 422.589 441.288 422.631 441.41 422.663L442.074 422.842C442.245 422.886 442.434 422.948 442.643 423.027C442.854 423.106 443.055 423.214 443.247 423.35C443.441 423.484 443.601 423.657 443.727 423.868C443.852 424.079 443.915 424.337 443.915 424.644C443.915 424.998 443.823 425.318 443.637 425.603C443.454 425.889 443.185 426.116 442.832 426.284C442.48 426.452 442.053 426.536 441.55 426.536C441.081 426.536 440.676 426.461 440.332 426.309C439.992 426.158 439.723 425.947 439.527 425.677C439.333 425.406 439.223 425.092 439.198 424.734H440.016C440.037 424.981 440.12 425.185 440.265 425.347C440.412 425.507 440.598 425.627 440.821 425.705C441.047 425.782 441.29 425.82 441.55 425.82C441.853 425.82 442.124 425.771 442.365 425.673C442.606 425.573 442.797 425.435 442.937 425.258C443.078 425.079 443.148 424.87 443.148 424.631C443.148 424.414 443.087 424.237 442.966 424.101C442.845 423.965 442.685 423.854 442.487 423.769C442.288 423.683 442.074 423.609 441.844 423.545L441.039 423.315C440.527 423.168 440.123 422.958 439.824 422.685C439.526 422.412 439.377 422.055 439.377 421.614C439.377 421.248 439.476 420.928 439.674 420.656C439.874 420.381 440.143 420.168 440.479 420.016C440.818 419.863 441.196 419.786 441.614 419.786C442.036 419.786 442.411 419.862 442.739 420.013C443.067 420.162 443.327 420.367 443.519 420.627C443.713 420.887 443.815 421.182 443.826 421.512H443.059ZM447.149 426.511C446.774 426.511 446.436 426.436 446.136 426.287C445.835 426.138 445.594 425.933 445.413 425.673C445.232 425.413 445.133 425.117 445.116 424.785H445.883C445.913 425.081 446.047 425.326 446.286 425.52C446.527 425.712 446.814 425.808 447.149 425.808C447.417 425.808 447.656 425.745 447.865 425.619C448.076 425.493 448.241 425.321 448.36 425.101C448.482 424.88 448.542 424.629 448.542 424.35C448.542 424.065 448.479 423.81 448.354 423.586C448.23 423.361 448.06 423.183 447.842 423.053C447.625 422.923 447.377 422.857 447.098 422.855C446.897 422.852 446.692 422.883 446.481 422.947C446.27 423.009 446.096 423.089 445.96 423.187L445.218 423.097L445.615 419.876H449.015V420.579H446.279L446.049 422.509H446.088C446.222 422.403 446.39 422.314 446.593 422.244C446.795 422.174 447.006 422.139 447.225 422.139C447.626 422.139 447.983 422.234 448.296 422.426C448.612 422.616 448.859 422.876 449.038 423.206C449.219 423.536 449.309 423.913 449.309 424.337C449.309 424.755 449.216 425.128 449.028 425.456C448.843 425.782 448.587 426.04 448.261 426.23C447.935 426.417 447.564 426.511 447.149 426.511ZM452.714 426.511C452.232 426.511 451.822 426.38 451.483 426.118C451.145 425.853 450.886 425.471 450.707 424.97C450.528 424.467 450.438 423.86 450.438 423.149C450.438 422.441 450.528 421.837 450.707 421.336C450.888 420.834 451.148 420.45 451.487 420.186C451.828 419.919 452.237 419.786 452.714 419.786C453.191 419.786 453.599 419.919 453.938 420.186C454.279 420.45 454.539 420.834 454.718 421.336C454.899 421.837 454.989 422.441 454.989 423.149C454.989 423.86 454.9 424.467 454.721 424.97C454.542 425.471 454.283 425.853 453.944 426.118C453.606 426.38 453.195 426.511 452.714 426.511ZM452.714 425.808C453.191 425.808 453.562 425.578 453.826 425.117C454.09 424.657 454.222 424.001 454.222 423.149C454.222 422.582 454.162 422.099 454.04 421.701C453.921 421.302 453.748 420.999 453.522 420.79C453.299 420.581 453.029 420.477 452.714 420.477C452.241 420.477 451.871 420.71 451.605 421.177C451.339 421.641 451.205 422.298 451.205 423.149C451.205 423.715 451.265 424.197 451.384 424.593C451.504 424.989 451.675 425.291 451.899 425.498C452.125 425.704 452.396 425.808 452.714 425.808Z" fill="#3936BE"/>
<ellipse cx="545.5" cy="702.5" rx="209.5" ry="32.5" fill="white"/>
<path d="M315.104 192.167C321.182 192.167 327.011 189.752 331.309 185.455C335.606 181.157 338.021 175.328 338.021 169.25C338.021 163.172 335.606 157.343 331.309 153.046C327.011 148.748 321.182 146.333 315.104 146.333C309.026 146.333 303.197 148.748 298.9 153.046C294.602 157.343 292.188 163.172 292.188 169.25C292.188 175.328 294.602 181.157 298.9 185.455C303.197 189.752 309.026 192.167 315.104 192.167ZM234.896 192.167C240.974 192.167 246.803 189.752 251.1 185.455C255.398 181.157 257.813 175.328 257.813 169.25C257.813 163.172 255.398 157.343 251.1 153.046C246.803 148.748 240.974 146.333 234.896 146.333C228.818 146.333 222.989 148.748 218.691 153.046C214.394 157.343 211.979 163.172 211.979 169.25C211.979 175.328 214.394 181.157 218.691 185.455C222.989 189.752 228.818 192.167 234.896 192.167ZM355.208 260.917C361.286 260.917 367.115 258.502 371.413 254.205C375.711 249.907 378.125 244.078 378.125 238C378.125 231.922 375.711 226.093 371.413 221.796C367.115 217.498 361.286 215.083 355.208 215.083C349.13 215.083 343.302 217.498 339.004 221.796C334.706 226.093 332.292 231.922 332.292 238C332.292 244.078 334.706 249.907 339.004 254.205C343.302 258.502 349.13 260.917 355.208 260.917ZM393.021 186.438C397.579 186.438 401.951 184.627 405.174 181.403C408.398 178.18 410.208 173.808 410.208 169.25C410.208 164.692 408.398 160.32 405.174 157.097C401.951 153.873 397.579 152.063 393.021 152.063C388.462 152.063 384.091 153.873 380.867 157.097C377.644 160.32 375.833 164.692 375.833 169.25C375.833 173.808 377.644 178.18 380.867 181.403C384.091 184.627 388.462 186.438 393.021 186.438ZM393.021 323.938C397.579 323.938 401.951 322.127 405.174 318.903C408.398 315.68 410.208 311.308 410.208 306.75C410.208 302.192 408.398 297.82 405.174 294.597C401.951 291.373 397.579 289.563 393.021 289.563C388.462 289.563 384.091 291.373 380.867 294.597C377.644 297.82 375.833 302.192 375.833 306.75C375.833 311.308 377.644 315.68 380.867 318.903C384.091 322.127 388.462 323.938 393.021 323.938ZM452.604 255.188C457.163 255.188 461.534 253.377 464.758 250.153C467.981 246.93 469.792 242.558 469.792 238C469.792 233.442 467.981 229.07 464.758 225.847C461.534 222.623 457.163 220.813 452.604 220.813C448.046 220.813 443.674 222.623 440.451 225.847C437.227 229.07 435.417 233.442 435.417 238C435.417 242.558 437.227 246.93 440.451 250.153C443.674 253.377 448.046 255.188 452.604 255.188ZM155.833 186.438C160.392 186.438 164.763 184.627 167.987 181.403C171.21 178.18 173.021 173.808 173.021 169.25C173.021 164.692 171.21 160.32 167.987 157.097C164.763 153.873 160.392 152.063 155.833 152.063C151.275 152.063 146.903 153.873 143.68 157.097C140.457 160.32 138.646 164.692 138.646 169.25C138.646 173.808 140.457 178.18 143.68 181.403C146.903 184.627 151.275 186.438 155.833 186.438ZM155.833 323.938C160.392 323.938 164.763 322.127 167.987 318.903C171.21 315.68 173.021 311.308 173.021 306.75C173.021 302.192 171.21 297.82 167.987 294.597C164.763 291.373 160.392 289.563 155.833 289.563C151.275 289.563 146.903 291.373 143.68 294.597C140.457 297.82 138.646 302.192 138.646 306.75C138.646 311.308 140.457 315.68 143.68 318.903C146.903 322.127 151.275 323.938 155.833 323.938ZM96.25 255.188C100.808 255.188 105.18 253.377 108.403 250.153C111.627 246.93 113.437 242.558 113.437 238C113.437 233.442 111.627 229.07 108.403 225.847C105.18 222.623 100.808 220.813 96.25 220.813C91.6916 220.813 87.3199 222.623 84.0966 225.847C80.8733 229.07 79.0625 233.442 79.0625 238C79.0625 242.558 80.8733 246.93 84.0966 250.153C87.3199 253.377 91.6916 255.188 96.25 255.188ZM364.375 99.3542C368.933 99.3542 373.305 97.5434 376.528 94.3201C379.752 91.0968 381.562 86.7251 381.562 82.1667C381.562 77.6083 379.752 73.2366 376.528 70.0133C373.305 66.79 368.933 64.9792 364.375 64.9792C359.817 64.9792 355.445 66.79 352.222 70.0133C348.998 73.2366 347.188 77.6083 347.188 82.1667C347.188 86.7251 348.998 91.0968 352.222 94.3201C355.445 97.5434 359.817 99.3542 364.375 99.3542ZM185.625 99.3542C190.183 99.3542 194.555 97.5434 197.778 94.3201C201.002 91.0968 202.813 86.7251 202.813 82.1667C202.813 77.6083 201.002 73.2366 197.778 70.0133C194.555 66.79 190.183 64.9792 185.625 64.9792C181.067 64.9792 176.695 66.79 173.472 70.0133C170.248 73.2366 168.438 77.6083 168.438 82.1667C168.438 86.7251 170.248 91.0968 173.472 94.3201C176.695 97.5434 181.067 99.3542 185.625 99.3542ZM276.146 117.688C280.704 117.688 285.076 115.877 288.299 112.653C291.523 109.43 293.333 105.058 293.333 100.5C293.333 95.9416 291.523 91.5699 288.299 88.3466C285.076 85.1233 280.704 83.3125 276.146 83.3125C271.587 83.3125 267.216 85.1233 263.992 88.3466C260.769 91.5699 258.958 95.9416 258.958 100.5C258.958 105.058 260.769 109.43 263.992 112.653C267.216 115.877 271.587 117.688 276.146 117.688ZM364.375 415.604C368.933 415.604 373.305 413.793 376.528 410.57C379.752 407.347 381.562 402.975 381.562 398.417C381.562 393.858 379.752 389.487 376.528 386.263C373.305 383.04 368.933 381.229 364.375 381.229C359.817 381.229 355.445 383.04 352.222 386.263C348.998 389.487 347.188 393.858 347.188 398.417C347.188 402.975 348.998 407.347 352.222 410.57C355.445 413.793 359.817 415.604 364.375 415.604ZM185.625 415.604C190.183 415.604 194.555 413.793 197.778 410.57C201.002 407.347 202.813 402.975 202.813 398.417C202.813 393.858 201.002 389.487 197.778 386.263C194.555 383.04 190.183 381.229 185.625 381.229C181.067 381.229 176.695 383.04 173.472 386.263C170.248 389.487 168.438 393.858 168.438 398.417C168.438 402.975 170.248 407.347 173.472 410.57C176.695 413.793 181.067 415.604 185.625 415.604ZM276.146 397.271C280.704 397.271 285.076 395.46 288.299 392.237C291.523 389.013 293.333 384.642 293.333 380.083C293.333 375.525 291.523 371.153 288.299 367.93C285.076 364.707 280.704 362.896 276.146 362.896C271.587 362.896 267.216 364.707 263.992 367.93C260.769 371.153 258.958 375.525 258.958 380.083C258.958 384.642 260.769 389.013 263.992 392.237C267.216 395.46 271.587 397.271 276.146 397.271ZM194.792 260.917C200.87 260.917 206.698 258.502 210.996 254.205C215.294 249.907 217.708 244.078 217.708 238C217.708 231.922 215.294 226.093 210.996 221.796C206.698 217.498 200.87 215.083 194.792 215.083C188.714 215.083 182.885 217.498 178.587 221.796C174.289 226.093 171.875 231.922 171.875 238C171.875 244.078 174.289 249.907 178.587 254.205C182.885 258.502 188.714 260.917 194.792 260.917ZM234.896 329.667C240.974 329.667 246.803 327.252 251.1 322.955C255.398 318.657 257.813 312.828 257.813 306.75C257.813 300.672 255.398 294.843 251.1 290.546C246.803 286.248 240.974 283.833 234.896 283.833C228.818 283.833 222.989 286.248 218.691 290.546C214.394 294.843 211.979 300.672 211.979 306.75C211.979 312.828 214.394 318.657 218.691 322.955C222.989 327.252 228.818 329.667 234.896 329.667ZM315.104 329.667C321.182 329.667 327.011 327.252 331.309 322.955C335.606 318.657 338.021 312.828 338.021 306.75C338.021 300.672 335.606 294.843 331.309 290.546C327.011 286.248 321.182 283.833 315.104 283.833C309.026 283.833 303.197 286.248 298.9 290.546C294.602 294.843 292.188 300.672 292.188 306.75C292.188 312.828 294.602 318.657 298.9 322.955C303.197 327.252 309.026 329.667 315.104 329.667Z" fill="white"/>
<g clip-path="url(#clip1_10_89)">
<path d="M555.162 703.39C444.936 703.39 355.61 613.778 355.61 503.838C355.61 393.612 445.222 304 555.162 304C665.101 304 755 393.612 755 503.552C755 613.778 665.388 703.39 555.162 703.39ZM555.162 384.164C489.312 384.164 435.774 437.703 435.774 503.552C435.774 569.401 489.312 622.94 555.162 622.94C621.011 622.94 674.549 569.401 674.549 503.552C674.836 437.703 621.011 384.164 555.162 384.164Z" fill="url(#paint1_linear_10_89)"/>
<path d="M555.162 722C434.915 722 337 624.085 337 503.552H454.384C454.384 559.381 499.619 604.616 555.162 604.616V722Z" fill="url(#paint2_linear_10_89)"/>
<path d="M454.384 503.838H337C337 459.175 350.17 416.23 375.078 379.584L472.421 445.433C460.682 462.325 454.384 482.652 454.384 503.838Z" fill="url(#paint3_linear_10_89)"/>
</g>
</g>
<defs>
<linearGradient id="paint0_linear_10_89" x1="427.235" y1="819.435" x2="427.235" y2="392.195" gradientUnits="userSpaceOnUse">
<stop stop-color="white" stop-opacity="0"/>
<stop offset="0.9992" stop-color="#3936BE"/>
</linearGradient>
<linearGradient id="paint1_linear_10_89" x1="355.608" y1="503.649" x2="754.906" y2="503.649" gradientUnits="userSpaceOnUse">
<stop stop-color="#6967FF"/>
<stop offset="1" stop-color="#8192FF"/>
</linearGradient>
<linearGradient id="paint2_linear_10_89" x1="337" y1="612.777" x2="555.257" y2="612.777" gradientUnits="userSpaceOnUse">
<stop stop-color="#E15283"/>
<stop offset="0.9992" stop-color="#FD94AA"/>
</linearGradient>
<linearGradient id="paint3_linear_10_89" x1="337" y1="441.56" x2="472.299" y2="441.56" gradientUnits="userSpaceOnUse">
<stop stop-color="#3AE7B5"/>
<stop offset="1" stop-color="#57D3A3"/>
</linearGradient>
<clipPath id="clip0_10_89">
<rect width="826" height="826" fill="white"/>
</clipPath>
<clipPath id="clip1_10_89">
<rect width="418" height="418" fill="white" transform="translate(337 304)"/>
</clipPath>
</defs>
</svg>
