<svg width="826" height="826" viewBox="0 0 826 826" fill="none" xmlns="http://www.w3.org/2000/svg">
<g clip-path="url(#clip0_10_35)">
<rect width="826" height="826" fill="#4361EE"/>
<circle cx="358.5" cy="337.5" r="281.5" fill="#A1ADE3"/>
<rect x="243.921" y="180.369" width="8.58712" height="371.536" rx="1" fill="white"/>
<rect x="262.24" y="180.369" width="8.58712" height="371.536" rx="1" fill="white"/>
<rect x="280.559" y="180.369" width="8.58712" height="371.536" rx="1" fill="white"/>
<path d="M290.008 172.926H243.341C243.158 172.926 242.98 172.877 242.824 172.783L230.966 165.623C230.099 165.099 230.47 163.767 231.482 163.767H301.643C302.651 163.767 303.025 165.09 302.167 165.619L290.532 172.778C290.375 172.875 290.193 172.926 290.008 172.926Z" fill="white"/>
<path d="M288.86 555.912H243.635L231.613 565.358V579.383H302.313V565.358L288.86 555.912Z" fill="white"/>
<rect x="359.413" y="180.041" width="8.58712" height="371.536" rx="1" fill="white"/>
<rect x="377.732" y="180.041" width="8.58712" height="371.536" rx="1" fill="white"/>
<rect x="396.051" y="180.041" width="8.58712" height="371.536" rx="1" fill="white"/>
<path d="M405.5 172.598H358.832C358.65 172.598 358.472 172.549 358.316 172.454L346.458 165.295C345.591 164.771 345.962 163.439 346.974 163.439H417.134C418.143 163.439 418.517 164.762 417.659 165.29L406.024 172.45C405.867 172.547 405.685 172.598 405.5 172.598Z" fill="white"/>
<path d="M404.352 555.584H359.126L347.104 565.03V579.055H417.805V565.03L404.352 555.584Z" fill="white"/>
<rect x="474.905" y="180.041" width="8.58712" height="371.536" rx="1" fill="white"/>
<rect x="493.224" y="180.041" width="8.58712" height="371.536" rx="1" fill="white"/>
<rect x="511.543" y="180.041" width="8.58712" height="371.536" rx="1" fill="white"/>
<path d="M520.992 172.598H474.324C474.142 172.598 473.963 172.549 473.807 172.454L461.949 165.295C461.082 164.771 461.453 163.439 462.466 163.439H532.626C533.635 163.439 534.009 164.762 533.15 165.29L521.516 172.45C521.358 172.547 521.177 172.598 520.992 172.598Z" fill="white"/>
<path d="M519.844 555.584H474.618L462.596 565.03V579.055H533.297V565.03L519.844 555.584Z" fill="white"/>
<rect x="590.396" y="180.041" width="8.58712" height="371.536" rx="1" fill="white"/>
<rect x="608.716" y="180.041" width="8.58712" height="371.536" rx="1" fill="white"/>
<rect x="627.035" y="180.041" width="8.58712" height="371.536" rx="1" fill="white"/>
<path d="M636.484 172.598H589.816C589.634 172.598 589.455 172.549 589.299 172.454L577.441 165.295C576.574 164.771 576.945 163.439 577.958 163.439H648.118C649.127 163.439 649.501 164.762 648.642 165.29L637.008 172.45C636.85 172.547 636.669 172.598 636.484 172.598Z" fill="white"/>
<path d="M635.336 555.584H590.11L578.088 565.03V579.055H648.789V565.03L635.336 555.584Z" fill="white"/>
<rect x="705.888" y="180.041" width="8.58712" height="371.536" rx="1" fill="white"/>
<rect x="724.208" y="180.041" width="8.58712" height="371.536" rx="1" fill="white"/>
<rect x="742.527" y="180.041" width="8.58712" height="371.536" rx="1" fill="white"/>
<path d="M751.976 172.598H705.308C705.126 172.598 704.947 172.549 704.791 172.454L692.933 165.295C692.066 164.771 692.437 163.439 693.45 163.439H763.61C764.618 163.439 764.993 164.762 764.134 165.29L752.5 172.45C752.342 172.547 752.161 172.598 751.976 172.598Z" fill="white"/>
<path d="M750.828 555.584H705.602L693.58 565.03V579.055H764.281V565.03L750.828 555.584Z" fill="white"/>
<rect x="821.38" y="184.382" width="8.58712" height="371.536" rx="1" fill="white"/>
<path d="M867.468 176.94H820.8C820.618 176.94 820.439 176.89 820.283 176.796L808.425 169.637C807.558 169.113 807.929 167.781 808.942 167.781H879.102C880.11 167.781 880.485 169.104 879.626 169.632L867.992 176.792C867.834 176.889 867.653 176.94 867.468 176.94Z" fill="white"/>
<path d="M866.319 559.926H821.094L809.072 569.371V583.397H879.773V569.371L866.319 559.926Z" fill="white"/>
<path d="M899.386 155.624H212.807C210.527 155.624 210.023 152.421 212.192 151.72L554.479 41.1979C554.877 41.0692 555.306 41.0688 555.705 41.1968L899.997 151.719C902.169 152.417 901.667 155.624 899.386 155.624Z" fill="white"/>
<path fill-rule="evenodd" clip-rule="evenodd" d="M888.909 587.199H225.091V603.408H181V635.827H933V603.408H888.909V587.199Z" fill="white"/>
<g filter="url(#filter0_d_10_35)">
<rect x="37" y="216" width="390" height="246" rx="35" fill="url(#paint0_linear_10_35)"/>
</g>
<g clip-path="url(#clip1_10_35)">
<path d="M202.808 300.151H159.192C155.878 300.151 153.191 302.748 153.191 305.953V332.047C153.191 335.252 155.878 337.849 159.192 337.849H202.808C206.122 337.849 208.809 335.252 208.809 332.047V305.953C208.809 302.748 206.122 300.151 202.808 300.151Z" stroke="white" stroke-width="2" stroke-miterlimit="10"/>
<path d="M172.397 311.409V307.322C172.395 306.38 172.586 305.447 172.958 304.576C173.331 303.705 173.877 302.914 174.566 302.248C175.255 301.582 176.074 301.054 176.975 300.694C177.875 300.334 178.841 300.15 179.815 300.151H182.197C183.171 300.151 184.135 300.337 185.035 300.697C185.935 301.057 186.753 301.586 187.442 302.251C188.131 302.917 188.677 303.708 189.05 304.578C189.423 305.448 189.615 306.381 189.615 307.322V311.409" stroke="white" stroke-width="2" stroke-miterlimit="10"/>
<path d="M189.615 326.557V330.678C189.615 332.58 188.833 334.404 187.442 335.749C186.051 337.093 184.164 337.849 182.197 337.849H179.815C178.841 337.85 177.875 337.666 176.975 337.306C176.074 336.946 175.255 336.418 174.566 335.752C173.877 335.086 173.331 334.295 172.958 333.424C172.586 332.553 172.395 331.62 172.397 330.678V326.557" stroke="white" stroke-width="2" stroke-miterlimit="10"/>
<path d="M172.397 311.409H153.191V326.557H172.397V311.409Z" stroke="white" stroke-width="2" stroke-miterlimit="10"/>
<path d="M208.821 311.409H189.615V326.557H208.821V311.409Z" stroke="white" stroke-width="2" stroke-miterlimit="10"/>
</g>
<ellipse cx="566" cy="742" rx="185" ry="26" fill="white"/>
<path d="M436.471 543.094C436.471 520.264 441.454 503.345 451.42 492.336C461.502 481.327 475.118 475.822 492.27 475.822C510 475.822 523.848 481.327 533.814 492.336C543.896 503.229 548.938 520.148 548.938 543.094C548.938 565.923 543.896 582.842 533.814 593.852C523.848 604.861 510.29 610.365 493.139 610.365C475.408 610.365 461.502 604.919 451.42 594.025C441.454 583.016 436.471 566.039 436.471 543.094ZM474.539 542.746C474.539 559.318 476.451 570.443 480.275 576.121C483.173 580.293 487.171 582.379 492.27 582.379C497.484 582.379 501.54 580.293 504.438 576.121C508.146 570.443 510 559.318 510 542.746C510 526.174 508.146 515.107 504.438 509.545C501.54 505.257 497.484 503.113 492.27 503.113C487.171 503.113 483.173 505.199 480.275 509.371C476.451 515.049 474.539 526.174 474.539 542.746ZM529.469 744.734H493.312L629.072 475.822H664.186L529.469 744.734ZM608.387 677.811C608.387 654.981 613.37 638.062 623.336 627.053C633.418 616.044 647.15 610.539 664.533 610.539C682.032 610.539 695.764 616.044 705.73 627.053C715.812 638.062 720.854 654.981 720.854 677.811C720.854 700.756 715.812 717.733 705.73 728.742C695.764 739.751 682.206 745.256 665.055 745.256C647.324 745.256 633.418 739.751 623.336 728.742C613.37 717.733 608.387 700.756 608.387 677.811ZM646.455 677.637C646.455 694.208 648.367 705.275 652.191 710.838C655.089 715.126 659.087 717.27 664.186 717.27C669.4 717.27 673.398 715.184 676.18 711.012C680.004 705.333 681.916 694.208 681.916 677.637C681.916 661.065 680.062 649.94 676.354 644.262C673.456 640.09 669.4 638.004 664.186 638.004C658.971 638.004 654.973 640.09 652.191 644.262C648.367 649.94 646.455 661.065 646.455 677.637Z" fill="#511BCD"/>
</g>
<defs>
<filter id="filter0_d_10_35" x="13" y="216" width="438" height="309" filterUnits="userSpaceOnUse" color-interpolation-filters="sRGB">
<feFlood flood-opacity="0" result="BackgroundImageFix"/>
<feColorMatrix in="SourceAlpha" type="matrix" values="0 0 0 0 0 0 0 0 0 0 0 0 0 0 0 0 0 0 127 0" result="hardAlpha"/>
<feMorphology radius="21" operator="erode" in="SourceAlpha" result="effect1_dropShadow_10_35"/>
<feOffset dy="39"/>
<feGaussianBlur stdDeviation="22.5"/>
<feComposite in2="hardAlpha" operator="out"/>
<feColorMatrix type="matrix" values="0 0 0 0 0.490196 0 0 0 0 0.839216 0 0 0 0 0.980392 0 0 0 1 0"/>
<feBlend mode="normal" in2="BackgroundImageFix" result="effect1_dropShadow_10_35"/>
<feBlend mode="normal" in="SourceGraphic" in2="effect1_dropShadow_10_35" result="shape"/>
</filter>
<linearGradient id="paint0_linear_10_35" x1="232" y1="216" x2="232" y2="462" gradientUnits="userSpaceOnUse">
<stop stop-color="#7DD6FA"/>
<stop offset="1" stop-color="#E678FA"/>
</linearGradient>
<clipPath id="clip0_10_35">
<rect width="826" height="826" fill="white"/>
</clipPath>
<clipPath id="clip1_10_35">
<rect width="58" height="40" fill="white" transform="translate(152 299)"/>
</clipPath>
</defs>
</svg>
