<svg width="107" height="45" viewBox="0 0 107 45" fill="none" xmlns="http://www.w3.org/2000/svg">
<circle cx="22.5" cy="22.5" r="22.5" fill="#511BCD"/>
<path d="M63.3926 30V27.6709C62.8262 28.501 62.0791 29.1553 61.1514 29.6338C60.2334 30.1123 59.2617 30.3516 58.2363 30.3516C57.1914 30.3516 56.2539 30.1221 55.4238 29.6631C54.5938 29.2041 53.9932 28.5596 53.6221 27.7295C53.251 26.8994 53.0654 25.752 53.0654 24.2871V14.4434H57.1816V21.5918C57.1816 23.7793 57.2549 25.1221 57.4014 25.6201C57.5576 26.1084 57.8359 26.499 58.2363 26.792C58.6367 27.0752 59.1445 27.2168 59.7598 27.2168C60.4629 27.2168 61.0928 27.0264 61.6494 26.6455C62.2061 26.2549 62.5869 25.7764 62.792 25.21C62.9971 24.6338 63.0996 23.2324 63.0996 21.0059V14.4434H67.2158V30H63.3926ZM85.6436 30H81.5273V22.0605C81.5273 20.3809 81.4395 19.2969 81.2637 18.8086C81.0879 18.3105 80.7998 17.9248 80.3994 17.6514C80.0088 17.3779 79.5352 17.2412 78.9785 17.2412C78.2656 17.2412 77.626 17.4365 77.0596 17.8271C76.4932 18.2178 76.1025 18.7354 75.8877 19.3799C75.6826 20.0244 75.5801 21.2158 75.5801 22.9541V30H71.4639V14.4434H75.2871V16.7285C76.6445 14.9707 78.3535 14.0918 80.4141 14.0918C81.3223 14.0918 82.1523 14.2578 82.9043 14.5898C83.6562 14.9121 84.2227 15.3271 84.6035 15.835C84.9941 16.3428 85.2627 16.9189 85.4092 17.5635C85.5654 18.208 85.6436 19.1309 85.6436 20.332V30ZM105.316 14.4434V17.7246H102.504V23.9941C102.504 25.2637 102.528 26.0059 102.577 26.2207C102.636 26.4258 102.758 26.5967 102.943 26.7334C103.139 26.8701 103.373 26.9385 103.646 26.9385C104.027 26.9385 104.579 26.8066 105.302 26.543L105.653 29.7363C104.696 30.1465 103.612 30.3516 102.401 30.3516C101.659 30.3516 100.99 30.2295 100.395 29.9854C99.7988 29.7314 99.3594 29.4092 99.0762 29.0186C98.8027 28.6182 98.6123 28.0811 98.5049 27.4072C98.417 26.9287 98.373 25.9619 98.373 24.5068V17.7246H96.4834V14.4434H98.373V11.3525L102.504 8.9502V14.4434H105.316Z" fill="white"/>
<path d="M89.833 12.334V8.52539H93.9492V12.334H89.833ZM89.833 30V14.4434H93.9492V30H89.833Z" fill="#511BCD"/>
<path d="M34.9897 15.4167C35.0034 15.318 35.0034 15.2179 34.9897 15.1192C34.9772 15.036 34.9529 14.9549 34.9176 14.8783C34.8794 14.8091 34.836 14.7428 34.7876 14.68C34.7327 14.5904 34.6646 14.5092 34.5855 14.4392L34.4123 14.34C34.3289 14.279 34.2364 14.2312 34.1379 14.1983H33.8492C33.7612 14.1147 33.6585 14.0475 33.546 14H26.3273C25.9444 14 25.5772 14.1493 25.3065 14.4149C25.0357 14.6806 24.8836 15.0409 24.8836 15.4167C24.8836 15.7924 25.0357 16.1527 25.3065 16.4184C25.5772 16.6841 25.9444 16.8333 26.3273 16.8333H30.4131L24.6382 23.5058L18.4012 19.865C18.1058 19.6926 17.7574 19.6293 17.4187 19.6864C17.0799 19.7435 16.7731 19.9174 16.5533 20.1767L9.3346 28.6767C9.21304 28.8198 9.12144 28.9851 9.06507 29.163C9.0087 29.341 8.98866 29.5281 9.0061 29.7136C9.02353 29.8992 9.0781 30.0795 9.16668 30.2444C9.25525 30.4092 9.3761 30.5552 9.52229 30.6742C9.78203 30.8854 10.1089 31.0006 10.4463 31C10.6584 31.0003 10.8679 30.9548 11.0601 30.8667C11.2522 30.7785 11.4222 30.6499 11.558 30.49L17.9826 22.925L24.1473 26.5517C24.4397 26.7218 24.7839 26.7853 25.1193 26.7309C25.4548 26.6765 25.7598 26.5076 25.9809 26.2542L32.1023 19.2417V22.5C32.1023 22.8757 32.2544 23.2361 32.5251 23.5017C32.7959 23.7674 33.1631 23.9167 33.546 23.9167C33.9289 23.9167 34.2961 23.7674 34.5669 23.5017C34.8376 23.2361 34.9897 22.8757 34.9897 22.5V15.4167Z" fill="white"/>
</svg>
