<svg width="45" height="78" viewBox="0 0 45 78" fill="none" xmlns="http://www.w3.org/2000/svg">
<path d="M41.9238 75.8281C41.9238 76.4792 41.4844 76.8047 40.6055 76.8047L29.6191 77.1953C29.1309 77.1628 28.7728 76.8535 28.5449 76.2676L16.2891 45.2129L12.8711 75.6328C12.7734 76.4141 12.3665 76.821 11.6504 76.8535L1.44531 77.1953C0.729167 77.1302 0.371094 76.821 0.371094 76.2676L8.81836 2.78125C8.88346 2.19531 9.02995 1.80469 9.25781 1.60938C9.48568 1.38151 11.2109 1.13737 14.4336 0.876953C17.6562 0.583984 21.9531 0.4375 27.3242 0.4375C32.6953 0.4375 36.8294 1.86979 39.7266 4.73438C42.6562 7.56641 44.1211 11.2285 44.1211 15.7207C44.1211 20.2129 43.584 24.1842 42.5098 27.6348C41.4355 31.0527 39.6615 34.1289 37.1875 36.8633C34.7135 39.5977 31.6211 41.6322 27.9102 42.9668L41.7773 75.2422C41.875 75.4375 41.9238 75.6328 41.9238 75.8281ZM20.0488 11.8145L17.3145 36.082C23.3366 35.724 27.487 32.9896 29.7656 27.8789C31.0026 25.0794 31.6211 22.2474 31.6211 19.3828C31.6211 16.4857 31.0189 14.4674 29.8145 13.3281C28.6426 12.1562 26.9336 11.5703 24.6875 11.5703C22.4414 11.5703 20.8952 11.6517 20.0488 11.8145Z" fill="black"/>
</svg>
